# xmcd
#
# Track frame offsets: 
#        150
#        17328
#        36606
#        52134
#        73287
#        89191
#
# Disc length: 1427 seconds
#
# Revision: 0
# Processed by: cddbd v1.5.2PL0 Copyright (c) Steve Scherf et al.
# Submitted via: ExactAudioCopy v1.3
#
DISCID=5a059106
DTITLE=Corey Stephenson - Prison leather
DYEAR=2019
DGENRE=Country Blues
TTITLE0=Gold chain
TTITLE1=Cold in here
TTITLE2=Son of an outlaw
TTITLE3=Prison leather
TTITLE4=Wasted times
TTITLE5=Devil's breath
EXTD=
EXTT0=
EXTT1=
EXTT2=
EXTT3=
EXTT4=
EXTT5=
PLAYORDER=
